<svg width="50" height="50" viewBox="0 0 50 50" fill="none" xmlns="http://www.w3.org/2000/svg">
<path fill-rule="evenodd" clip-rule="evenodd" d="M17 25C17 24.4477 17.4477 24 18 24H32C32.5523 24 33 24.4477 33 25C33 25.5523 32.5523 26 32 26H18C17.4477 26 17 25.5523 17 25Z" fill="white"/>
<path fill-rule="evenodd" clip-rule="evenodd" d="M25.7071 17.2929C26.0976 17.6834 26.0976 18.3166 25.7071 18.7071L19.4142 25L25.7071 31.2929C26.0976 31.6834 26.0976 32.3166 25.7071 32.7071C25.3166 33.0976 24.6834 33.0976 24.2929 32.7071L17.2929 25.7071C16.9024 25.3166 16.9024 24.6834 17.2929 24.2929L24.2929 17.2929C24.6834 16.9024 25.3166 16.9024 25.7071 17.2929Z" fill="white"/>
</svg>
