<svg width="50" height="50" viewBox="0 0 50 50" fill="none" xmlns="http://www.w3.org/2000/svg">
<path fill-rule="evenodd" clip-rule="evenodd" d="M33 25C33 25.5523 32.5523 26 32 26L18 26C17.4477 26 17 25.5523 17 25C17 24.4477 17.4477 24 18 24H32C32.5523 24 33 24.4477 33 25Z" fill="white"/>
<path fill-rule="evenodd" clip-rule="evenodd" d="M24.2929 32.7071C23.9024 32.3166 23.9024 31.6834 24.2929 31.2929L30.5858 25L24.2929 18.7071C23.9024 18.3166 23.9024 17.6834 24.2929 17.2929C24.6834 16.9024 25.3166 16.9024 25.7071 17.2929L32.7071 24.2929C33.0976 24.6834 33.0976 25.3166 32.7071 25.7071L25.7071 32.7071C25.3166 33.0976 24.6834 33.0976 24.2929 32.7071Z" fill="white"/>
</svg>
