<svg width="50" height="50" viewBox="0 0 50 50" fill="none" xmlns="http://www.w3.org/2000/svg">
<path fill-rule="evenodd" clip-rule="evenodd" d="M16.75 17.5C16.75 17.0858 17.0858 16.75 17.5 16.75H23.5C23.9142 16.75 24.25 17.0858 24.25 17.5V23.5C24.25 23.9142 23.9142 24.25 23.5 24.25H17.5C17.0858 24.25 16.75 23.9142 16.75 23.5V17.5ZM18.25 18.25V22.75H22.75V18.25H18.25Z" fill="white"/>
<path fill-rule="evenodd" clip-rule="evenodd" d="M25.75 17.5C25.75 17.0858 26.0858 16.75 26.5 16.75H32.5C32.9142 16.75 33.25 17.0858 33.25 17.5V23.5C33.25 23.9142 32.9142 24.25 32.5 24.25H26.5C26.0858 24.25 25.75 23.9142 25.75 23.5V17.5ZM27.25 18.25V22.75H31.75V18.25H27.25Z" fill="white"/>
<path fill-rule="evenodd" clip-rule="evenodd" d="M16.75 26.5C16.75 26.0858 17.0858 25.75 17.5 25.75H23.5C23.9142 25.75 24.25 26.0858 24.25 26.5V32.5C24.25 32.9142 23.9142 33.25 23.5 33.25H17.5C17.0858 33.25 16.75 32.9142 16.75 32.5V26.5ZM18.25 27.25V31.75H22.75V27.25H18.25Z" fill="white"/>
<path fill-rule="evenodd" clip-rule="evenodd" d="M25.75 26.5C25.75 26.0858 26.0858 25.75 26.5 25.75H32.5C32.9142 25.75 33.25 26.0858 33.25 26.5V32.5C33.25 32.9142 32.9142 33.25 32.5 33.25H26.5C26.0858 33.25 25.75 32.9142 25.75 32.5V26.5ZM27.25 27.25V31.75H31.75V27.25H27.25Z" fill="white"/>
</svg>
