<svg width="50" height="50" viewBox="0 0 50 50" fill="none" xmlns="http://www.w3.org/2000/svg">
<rect opacity="0.8" width="50" height="50" rx="25" transform="matrix(-1 0 0 1 50 0)" fill="#367E8D"/>
<path fill-rule="evenodd" clip-rule="evenodd" d="M8.67014 43.9303C17.5987 42.6241 26.7699 37.5844 33.7776 29.2846C39.2041 22.8576 42.4859 15.4793 43.5936 8.28801C39.0172 3.19975 32.3823 0 25 0C11.1929 0 0 11.1929 0 25C0 32.5654 3.36047 39.3459 8.67014 43.9303Z" fill="#C4C4C4" fill-opacity="0.15"/>
<path d="M19.1667 37.0833V12.9166H27.1876C28.9281 12.9166 30.5973 13.6327 31.828 14.9074C33.0587 16.182 33.7501 17.9109 33.7501 19.7135C33.7501 21.5161 33.0587 23.245 31.828 24.5196C30.5973 25.7943 28.9281 26.5104 27.1876 26.5104H19.1667" stroke="#EFF4F9" stroke-width="3" stroke-linecap="round" stroke-linejoin="round"/>
</svg>
