<svg width="50" height="50" viewBox="0 0 50 50" fill="none" xmlns="http://www.w3.org/2000/svg">
<rect opacity="0.8" width="50" height="50" rx="25" transform="matrix(-1 0 0 1 50 0)" fill="#9A0004"/>
<path fill-rule="evenodd" clip-rule="evenodd" d="M8.67018 43.9303C17.5987 42.6241 26.7699 37.5844 33.7776 29.2847C39.2041 22.8576 42.4858 15.4793 43.5935 8.28799C39.0172 3.19974 32.3823 0 25 0C11.1929 0 0 11.1929 0 25C0 32.5654 3.36048 39.3459 8.67018 43.9303Z" fill="#C4C4C4" fill-opacity="0.15"/>
<path d="M38.5093 25C38.5107 25.3283 38.447 25.6536 38.3219 25.957C38.1968 26.2605 38.0129 26.5362 37.7806 26.768C37.5484 26.9999 37.2725 27.1834 36.9689 27.308C36.6654 27.4325 36.3401 27.4955 36.012 27.4935H27.7015V35.8136C27.6724 36.456 27.3968 37.0624 26.9321 37.5066C26.4675 37.9509 25.8495 38.1988 25.2068 38.1988C24.5641 38.1988 23.9462 37.9509 23.4815 37.5066C23.0169 37.0624 22.7413 36.456 22.7121 35.8136V27.4935H14.4119C14.0748 27.5088 13.738 27.4556 13.422 27.3371C13.106 27.2186 12.8172 27.0372 12.5732 26.8039C12.3293 26.5706 12.135 26.2903 12.0024 25.9798C11.8697 25.6693 11.8013 25.3351 11.8013 24.9975C11.8013 24.6598 11.8697 24.3256 12.0024 24.0151C12.135 23.7046 12.3293 23.4243 12.5732 23.191C12.8172 22.9577 13.106 22.7763 13.422 22.6578C13.738 22.5393 14.0748 22.4861 14.4119 22.5014H22.7224V14.1865C22.7516 13.5441 23.0272 12.9377 23.4918 12.4934C23.9565 12.0492 24.5744 11.8013 25.2171 11.8013C25.8598 11.8013 26.4778 12.0492 26.9424 12.4934C27.4071 12.9377 27.6827 13.5441 27.7118 14.1865V22.5014H36.0378C36.6965 22.5055 37.3267 22.7709 37.79 23.2393C38.2534 23.7078 38.5121 24.341 38.5093 25Z" fill="white"/>
</svg>
